<mxfile host="app.diagrams.net" modified="2023-06-04T16:58:47.772Z" agent="Mozilla/5.0 (Windows NT 10.0; Win64; x64) AppleWebKit/537.36 (KHTML, like Gecko) Chrome/110.0.0.0 YaBrowser/23.3.4.603 Yowser/2.5 Safari/537.36" etag="PRhb4K_c90JdQgVHIvwc" version="21.3.4" type="device">
  <diagram name="Страница 1" id="nZ2__kBRZMROyS4MchO6">
    <mxGraphModel dx="1750" dy="962" grid="1" gridSize="10" guides="1" tooltips="1" connect="1" arrows="1" fold="1" page="1" pageScale="1" pageWidth="827" pageHeight="1169" math="0" shadow="0">
      <root>
        <mxCell id="0" />
        <mxCell id="1" parent="0" />
        <mxCell id="4N3RR8Yqe497FsGkJwwM-2" value="" style="shape=umlLifeline;perimeter=lifelinePerimeter;whiteSpace=wrap;html=1;container=1;dropTarget=0;collapsible=0;recursiveResize=0;outlineConnect=0;portConstraint=eastwest;newEdgeStyle={&quot;edgeStyle&quot;:&quot;elbowEdgeStyle&quot;,&quot;elbow&quot;:&quot;vertical&quot;,&quot;curved&quot;:0,&quot;rounded&quot;:0};participant=umlActor;size=40;" parent="1" vertex="1">
          <mxGeometry x="280" y="150" width="20" height="930" as="geometry" />
        </mxCell>
        <mxCell id="4N3RR8Yqe497FsGkJwwM-3" value="" style="html=1;points=[];perimeter=orthogonalPerimeter;outlineConnect=0;targetShapes=umlLifeline;portConstraint=eastwest;newEdgeStyle={&quot;edgeStyle&quot;:&quot;elbowEdgeStyle&quot;,&quot;elbow&quot;:&quot;vertical&quot;,&quot;curved&quot;:0,&quot;rounded&quot;:0};" parent="4N3RR8Yqe497FsGkJwwM-2" vertex="1">
          <mxGeometry x="5" y="70" width="10" height="820" as="geometry" />
        </mxCell>
        <mxCell id="4N3RR8Yqe497FsGkJwwM-4" value="Авторизованный&lt;br&gt;&amp;nbsp;пользователь" style="text;html=1;align=center;verticalAlign=middle;resizable=0;points=[];autosize=1;strokeColor=none;fillColor=none;" parent="1" vertex="1">
          <mxGeometry x="230" y="110" width="120" height="40" as="geometry" />
        </mxCell>
        <mxCell id="4N3RR8Yqe497FsGkJwwM-5" value=":Веб-приложение" style="shape=umlLifeline;perimeter=lifelinePerimeter;whiteSpace=wrap;html=1;container=1;dropTarget=0;collapsible=0;recursiveResize=0;outlineConnect=0;portConstraint=eastwest;newEdgeStyle={&quot;edgeStyle&quot;:&quot;elbowEdgeStyle&quot;,&quot;elbow&quot;:&quot;vertical&quot;,&quot;curved&quot;:0,&quot;rounded&quot;:0};" parent="1" vertex="1">
          <mxGeometry x="440" y="140" width="100" height="930" as="geometry" />
        </mxCell>
        <mxCell id="4N3RR8Yqe497FsGkJwwM-33" value="" style="html=1;points=[];perimeter=orthogonalPerimeter;outlineConnect=0;targetShapes=umlLifeline;portConstraint=eastwest;newEdgeStyle={&quot;edgeStyle&quot;:&quot;elbowEdgeStyle&quot;,&quot;elbow&quot;:&quot;vertical&quot;,&quot;curved&quot;:0,&quot;rounded&quot;:0};" parent="4N3RR8Yqe497FsGkJwwM-5" vertex="1">
          <mxGeometry x="45" y="90" width="10" height="80" as="geometry" />
        </mxCell>
        <mxCell id="4N3RR8Yqe497FsGkJwwM-36" value="" style="html=1;points=[];perimeter=orthogonalPerimeter;outlineConnect=0;targetShapes=umlLifeline;portConstraint=eastwest;newEdgeStyle={&quot;edgeStyle&quot;:&quot;elbowEdgeStyle&quot;,&quot;elbow&quot;:&quot;vertical&quot;,&quot;curved&quot;:0,&quot;rounded&quot;:0};" parent="4N3RR8Yqe497FsGkJwwM-5" vertex="1">
          <mxGeometry x="45" y="210" width="10" height="230" as="geometry" />
        </mxCell>
        <mxCell id="4N3RR8Yqe497FsGkJwwM-58" value="" style="html=1;points=[];perimeter=orthogonalPerimeter;outlineConnect=0;targetShapes=umlLifeline;portConstraint=eastwest;newEdgeStyle={&quot;edgeStyle&quot;:&quot;elbowEdgeStyle&quot;,&quot;elbow&quot;:&quot;vertical&quot;,&quot;curved&quot;:0,&quot;rounded&quot;:0};" parent="4N3RR8Yqe497FsGkJwwM-5" vertex="1">
          <mxGeometry x="45" y="490" width="10" height="100" as="geometry" />
        </mxCell>
        <mxCell id="4N3RR8Yqe497FsGkJwwM-9" value=":Сервер" style="shape=umlLifeline;perimeter=lifelinePerimeter;whiteSpace=wrap;html=1;container=1;dropTarget=0;collapsible=0;recursiveResize=0;outlineConnect=0;portConstraint=eastwest;newEdgeStyle={&quot;edgeStyle&quot;:&quot;elbowEdgeStyle&quot;,&quot;elbow&quot;:&quot;vertical&quot;,&quot;curved&quot;:0,&quot;rounded&quot;:0};" parent="1" vertex="1">
          <mxGeometry x="700" y="140" width="100" height="930" as="geometry" />
        </mxCell>
        <mxCell id="4N3RR8Yqe497FsGkJwwM-50" value="" style="html=1;points=[];perimeter=orthogonalPerimeter;outlineConnect=0;targetShapes=umlLifeline;portConstraint=eastwest;newEdgeStyle={&quot;edgeStyle&quot;:&quot;elbowEdgeStyle&quot;,&quot;elbow&quot;:&quot;vertical&quot;,&quot;curved&quot;:0,&quot;rounded&quot;:0};" parent="4N3RR8Yqe497FsGkJwwM-9" vertex="1">
          <mxGeometry x="45" y="320" width="10" height="120" as="geometry" />
        </mxCell>
        <mxCell id="4N3RR8Yqe497FsGkJwwM-61" value="" style="html=1;points=[];perimeter=orthogonalPerimeter;outlineConnect=0;targetShapes=umlLifeline;portConstraint=eastwest;newEdgeStyle={&quot;edgeStyle&quot;:&quot;elbowEdgeStyle&quot;,&quot;elbow&quot;:&quot;vertical&quot;,&quot;curved&quot;:0,&quot;rounded&quot;:0};" parent="4N3RR8Yqe497FsGkJwwM-9" vertex="1">
          <mxGeometry x="45" y="500" width="10" height="90" as="geometry" />
        </mxCell>
        <mxCell id="4N3RR8Yqe497FsGkJwwM-12" value=":БД" style="shape=umlLifeline;perimeter=lifelinePerimeter;whiteSpace=wrap;html=1;container=1;dropTarget=0;collapsible=0;recursiveResize=0;outlineConnect=0;portConstraint=eastwest;newEdgeStyle={&quot;edgeStyle&quot;:&quot;elbowEdgeStyle&quot;,&quot;elbow&quot;:&quot;vertical&quot;,&quot;curved&quot;:0,&quot;rounded&quot;:0};" parent="1" vertex="1">
          <mxGeometry x="860" y="140" width="100" height="760" as="geometry" />
        </mxCell>
        <mxCell id="4N3RR8Yqe497FsGkJwwM-53" value="" style="html=1;points=[];perimeter=orthogonalPerimeter;outlineConnect=0;targetShapes=umlLifeline;portConstraint=eastwest;newEdgeStyle={&quot;edgeStyle&quot;:&quot;elbowEdgeStyle&quot;,&quot;elbow&quot;:&quot;vertical&quot;,&quot;curved&quot;:0,&quot;rounded&quot;:0};" parent="4N3RR8Yqe497FsGkJwwM-12" vertex="1">
          <mxGeometry x="45" y="330" width="10" height="80" as="geometry" />
        </mxCell>
        <mxCell id="4N3RR8Yqe497FsGkJwwM-64" value="" style="html=1;points=[];perimeter=orthogonalPerimeter;outlineConnect=0;targetShapes=umlLifeline;portConstraint=eastwest;newEdgeStyle={&quot;edgeStyle&quot;:&quot;elbowEdgeStyle&quot;,&quot;elbow&quot;:&quot;vertical&quot;,&quot;curved&quot;:0,&quot;rounded&quot;:0};" parent="4N3RR8Yqe497FsGkJwwM-12" vertex="1">
          <mxGeometry x="45" y="510" width="10" height="80" as="geometry" />
        </mxCell>
        <mxCell id="4N3RR8Yqe497FsGkJwwM-34" value="Посмотреть страницу сайта()" style="html=1;verticalAlign=bottom;endArrow=block;edgeStyle=elbowEdgeStyle;elbow=vertical;curved=0;rounded=0;" parent="1" source="4N3RR8Yqe497FsGkJwwM-3" target="4N3RR8Yqe497FsGkJwwM-33" edge="1">
          <mxGeometry relative="1" as="geometry">
            <mxPoint x="400" y="230" as="sourcePoint" />
            <Array as="points">
              <mxPoint x="340" y="240" />
            </Array>
          </mxGeometry>
        </mxCell>
        <mxCell id="4N3RR8Yqe497FsGkJwwM-35" value="Страница сайта просмотрена()" style="html=1;verticalAlign=bottom;endArrow=open;dashed=1;endSize=8;edgeStyle=elbowEdgeStyle;elbow=vertical;curved=0;rounded=0;" parent="1" source="4N3RR8Yqe497FsGkJwwM-33" target="4N3RR8Yqe497FsGkJwwM-3" edge="1">
          <mxGeometry relative="1" as="geometry">
            <mxPoint x="389" y="305" as="targetPoint" />
            <Array as="points">
              <mxPoint x="360" y="300" />
            </Array>
          </mxGeometry>
        </mxCell>
        <mxCell id="4N3RR8Yqe497FsGkJwwM-37" value="Добавить статью()" style="html=1;verticalAlign=bottom;endArrow=block;edgeStyle=elbowEdgeStyle;elbow=vertical;curved=0;rounded=0;" parent="1" source="4N3RR8Yqe497FsGkJwwM-3" target="4N3RR8Yqe497FsGkJwwM-36" edge="1">
          <mxGeometry relative="1" as="geometry">
            <mxPoint x="415" y="350" as="sourcePoint" />
            <Array as="points">
              <mxPoint x="350" y="360" />
            </Array>
            <mxPoint as="offset" />
          </mxGeometry>
        </mxCell>
        <mxCell id="4N3RR8Yqe497FsGkJwwM-38" value="Отображение статьи()" style="html=1;verticalAlign=bottom;endArrow=open;dashed=1;endSize=8;edgeStyle=elbowEdgeStyle;elbow=vertical;curved=0;rounded=0;" parent="1" source="4N3RR8Yqe497FsGkJwwM-36" target="4N3RR8Yqe497FsGkJwwM-3" edge="1">
          <mxGeometry relative="1" as="geometry">
            <mxPoint x="415" y="425" as="targetPoint" />
            <mxPoint x="485" y="470" as="sourcePoint" />
            <Array as="points">
              <mxPoint x="340" y="570" />
              <mxPoint x="380" y="490" />
              <mxPoint x="420" y="470" />
              <mxPoint x="430" y="430" />
              <mxPoint x="360" y="420" />
            </Array>
          </mxGeometry>
        </mxCell>
        <mxCell id="4N3RR8Yqe497FsGkJwwM-44" value=":Форма для добавления статьи" style="shape=umlLifeline;perimeter=lifelinePerimeter;whiteSpace=wrap;html=1;container=1;dropTarget=0;collapsible=0;recursiveResize=0;outlineConnect=0;portConstraint=eastwest;newEdgeStyle={&quot;edgeStyle&quot;:&quot;elbowEdgeStyle&quot;,&quot;elbow&quot;:&quot;vertical&quot;,&quot;curved&quot;:0,&quot;rounded&quot;:0};" parent="1" vertex="1">
          <mxGeometry x="570" y="280" width="100" height="800" as="geometry" />
        </mxCell>
        <mxCell id="4N3RR8Yqe497FsGkJwwM-45" value="" style="html=1;points=[];perimeter=orthogonalPerimeter;outlineConnect=0;targetShapes=umlLifeline;portConstraint=eastwest;newEdgeStyle={&quot;edgeStyle&quot;:&quot;elbowEdgeStyle&quot;,&quot;elbow&quot;:&quot;vertical&quot;,&quot;curved&quot;:0,&quot;rounded&quot;:0};" parent="4N3RR8Yqe497FsGkJwwM-44" vertex="1">
          <mxGeometry x="45" y="80" width="10" height="130" as="geometry" />
        </mxCell>
        <mxCell id="4N3RR8Yqe497FsGkJwwM-46" value="Ввести данные &lt;br&gt;на форму()" style="html=1;verticalAlign=bottom;endArrow=block;edgeStyle=elbowEdgeStyle;elbow=vertical;curved=0;rounded=0;" parent="1" source="4N3RR8Yqe497FsGkJwwM-36" target="4N3RR8Yqe497FsGkJwwM-45" edge="1">
          <mxGeometry x="0.0833" relative="1" as="geometry">
            <mxPoint x="535" y="360" as="sourcePoint" />
            <Array as="points">
              <mxPoint x="530" y="370" />
            </Array>
            <mxPoint as="offset" />
          </mxGeometry>
        </mxCell>
        <mxCell id="4N3RR8Yqe497FsGkJwwM-48" value="Заполнить форму для статьи()" style="html=1;verticalAlign=bottom;endArrow=block;edgeStyle=elbowEdgeStyle;elbow=vertical;curved=0;rounded=0;" parent="1" source="4N3RR8Yqe497FsGkJwwM-3" target="4N3RR8Yqe497FsGkJwwM-45" edge="1">
          <mxGeometry x="-0.3437" width="80" relative="1" as="geometry">
            <mxPoint x="360" y="400" as="sourcePoint" />
            <mxPoint x="440" y="400" as="targetPoint" />
            <Array as="points">
              <mxPoint x="510" y="410" />
            </Array>
            <mxPoint as="offset" />
          </mxGeometry>
        </mxCell>
        <mxCell id="4N3RR8Yqe497FsGkJwwM-51" value="Отправить&lt;br&gt;&amp;nbsp;данные о статье()" style="html=1;verticalAlign=bottom;endArrow=block;edgeStyle=elbowEdgeStyle;elbow=vertical;curved=0;rounded=0;" parent="1" source="4N3RR8Yqe497FsGkJwwM-45" target="4N3RR8Yqe497FsGkJwwM-50" edge="1">
          <mxGeometry relative="1" as="geometry">
            <mxPoint x="645" y="470" as="sourcePoint" />
            <mxPoint as="offset" />
          </mxGeometry>
        </mxCell>
        <mxCell id="4N3RR8Yqe497FsGkJwwM-54" value="Добавить статью в БД()" style="html=1;verticalAlign=bottom;endArrow=block;edgeStyle=elbowEdgeStyle;elbow=vertical;curved=0;rounded=0;" parent="1" source="4N3RR8Yqe497FsGkJwwM-50" target="4N3RR8Yqe497FsGkJwwM-53" edge="1">
          <mxGeometry relative="1" as="geometry">
            <mxPoint x="835" y="470" as="sourcePoint" />
            <Array as="points">
              <mxPoint x="790" y="480" />
            </Array>
          </mxGeometry>
        </mxCell>
        <mxCell id="4N3RR8Yqe497FsGkJwwM-55" value="Статья добавлена в БД()" style="html=1;verticalAlign=bottom;endArrow=open;dashed=1;endSize=8;edgeStyle=elbowEdgeStyle;elbow=vertical;curved=0;rounded=0;" parent="1" source="4N3RR8Yqe497FsGkJwwM-53" target="4N3RR8Yqe497FsGkJwwM-50" edge="1">
          <mxGeometry relative="1" as="geometry">
            <mxPoint x="835" y="545" as="targetPoint" />
            <Array as="points">
              <mxPoint x="790" y="540" />
            </Array>
            <mxPoint as="offset" />
          </mxGeometry>
        </mxCell>
        <mxCell id="4N3RR8Yqe497FsGkJwwM-52" value="Статья добавлена на сайт()" style="html=1;verticalAlign=bottom;endArrow=open;dashed=1;endSize=8;edgeStyle=elbowEdgeStyle;elbow=vertical;curved=0;rounded=0;" parent="1" source="4N3RR8Yqe497FsGkJwwM-50" target="4N3RR8Yqe497FsGkJwwM-36" edge="1">
          <mxGeometry relative="1" as="geometry">
            <mxPoint x="675" y="545" as="targetPoint" />
            <Array as="points">
              <mxPoint x="550" y="560" />
            </Array>
          </mxGeometry>
        </mxCell>
        <mxCell id="4N3RR8Yqe497FsGkJwwM-59" value="Удалить статью()" style="html=1;verticalAlign=bottom;endArrow=block;edgeStyle=elbowEdgeStyle;elbow=vertical;curved=0;rounded=0;" parent="1" source="4N3RR8Yqe497FsGkJwwM-3" target="4N3RR8Yqe497FsGkJwwM-58" edge="1">
          <mxGeometry relative="1" as="geometry">
            <mxPoint x="415" y="630" as="sourcePoint" />
            <Array as="points">
              <mxPoint x="330" y="640" />
            </Array>
            <mxPoint as="offset" />
          </mxGeometry>
        </mxCell>
        <mxCell id="4N3RR8Yqe497FsGkJwwM-60" value="Удалено отображение статьи()" style="html=1;verticalAlign=bottom;endArrow=open;dashed=1;endSize=8;edgeStyle=elbowEdgeStyle;elbow=vertical;curved=0;rounded=0;" parent="1" source="4N3RR8Yqe497FsGkJwwM-58" target="4N3RR8Yqe497FsGkJwwM-3" edge="1">
          <mxGeometry relative="1" as="geometry">
            <mxPoint x="415" y="705" as="targetPoint" />
            <Array as="points">
              <mxPoint x="420" y="720" />
              <mxPoint x="350" y="700" />
            </Array>
          </mxGeometry>
        </mxCell>
        <mxCell id="4N3RR8Yqe497FsGkJwwM-62" value="Отправить данные о статье()" style="html=1;verticalAlign=bottom;endArrow=block;edgeStyle=elbowEdgeStyle;elbow=vertical;curved=0;rounded=0;" parent="1" source="4N3RR8Yqe497FsGkJwwM-58" target="4N3RR8Yqe497FsGkJwwM-61" edge="1">
          <mxGeometry relative="1" as="geometry">
            <mxPoint x="675" y="640" as="sourcePoint" />
            <Array as="points">
              <mxPoint x="550" y="650" />
            </Array>
          </mxGeometry>
        </mxCell>
        <mxCell id="4N3RR8Yqe497FsGkJwwM-63" value="Статья удалена()" style="html=1;verticalAlign=bottom;endArrow=open;dashed=1;endSize=8;edgeStyle=elbowEdgeStyle;elbow=vertical;curved=0;rounded=0;" parent="1" source="4N3RR8Yqe497FsGkJwwM-61" target="4N3RR8Yqe497FsGkJwwM-58" edge="1">
          <mxGeometry relative="1" as="geometry">
            <mxPoint x="675" y="715" as="targetPoint" />
            <Array as="points">
              <mxPoint x="590" y="720" />
              <mxPoint x="650" y="710" />
              <mxPoint x="580" y="720" />
              <mxPoint x="530" y="700" />
            </Array>
          </mxGeometry>
        </mxCell>
        <mxCell id="4N3RR8Yqe497FsGkJwwM-65" value="Удалить статью()" style="html=1;verticalAlign=bottom;endArrow=block;edgeStyle=elbowEdgeStyle;elbow=vertical;curved=0;rounded=0;" parent="1" source="4N3RR8Yqe497FsGkJwwM-61" target="4N3RR8Yqe497FsGkJwwM-64" edge="1">
          <mxGeometry x="0.0065" relative="1" as="geometry">
            <mxPoint x="840" y="650" as="sourcePoint" />
            <Array as="points">
              <mxPoint x="800" y="660" />
            </Array>
            <mxPoint as="offset" />
          </mxGeometry>
        </mxCell>
        <mxCell id="4N3RR8Yqe497FsGkJwwM-66" value="Статья удалена()" style="html=1;verticalAlign=bottom;endArrow=open;dashed=1;endSize=8;edgeStyle=elbowEdgeStyle;elbow=vertical;curved=0;rounded=0;" parent="1" source="4N3RR8Yqe497FsGkJwwM-64" target="4N3RR8Yqe497FsGkJwwM-61" edge="1">
          <mxGeometry relative="1" as="geometry">
            <mxPoint x="840" y="725" as="targetPoint" />
            <Array as="points">
              <mxPoint x="800" y="720" />
            </Array>
          </mxGeometry>
        </mxCell>
        <mxCell id="hdHMv5fo1OQ8ej9eL9PY-16" value="" style="html=1;points=[];perimeter=orthogonalPerimeter;outlineConnect=0;targetShapes=umlLifeline;portConstraint=eastwest;newEdgeStyle={&quot;edgeStyle&quot;:&quot;elbowEdgeStyle&quot;,&quot;elbow&quot;:&quot;vertical&quot;,&quot;curved&quot;:0,&quot;rounded&quot;:0};" parent="1" vertex="1">
          <mxGeometry x="485" y="780" width="10" height="230" as="geometry" />
        </mxCell>
        <mxCell id="hdHMv5fo1OQ8ej9eL9PY-17" value="" style="html=1;points=[];perimeter=orthogonalPerimeter;outlineConnect=0;targetShapes=umlLifeline;portConstraint=eastwest;newEdgeStyle={&quot;edgeStyle&quot;:&quot;elbowEdgeStyle&quot;,&quot;elbow&quot;:&quot;vertical&quot;,&quot;curved&quot;:0,&quot;rounded&quot;:0};" parent="1" vertex="1">
          <mxGeometry x="745" y="890" width="10" height="120" as="geometry" />
        </mxCell>
        <mxCell id="hdHMv5fo1OQ8ej9eL9PY-18" value="" style="html=1;points=[];perimeter=orthogonalPerimeter;outlineConnect=0;targetShapes=umlLifeline;portConstraint=eastwest;newEdgeStyle={&quot;edgeStyle&quot;:&quot;elbowEdgeStyle&quot;,&quot;elbow&quot;:&quot;vertical&quot;,&quot;curved&quot;:0,&quot;rounded&quot;:0};" parent="1" vertex="1">
          <mxGeometry x="905" y="900" width="10" height="80" as="geometry" />
        </mxCell>
        <mxCell id="hdHMv5fo1OQ8ej9eL9PY-21" value="Редактирование статьи()" style="html=1;verticalAlign=bottom;endArrow=block;edgeStyle=elbowEdgeStyle;elbow=vertical;curved=0;rounded=0;" parent="1" target="hdHMv5fo1OQ8ej9eL9PY-16" edge="1">
          <mxGeometry relative="1" as="geometry">
            <mxPoint x="295" y="790" as="sourcePoint" />
            <Array as="points">
              <mxPoint x="350" y="790" />
            </Array>
            <mxPoint as="offset" />
          </mxGeometry>
        </mxCell>
        <mxCell id="hdHMv5fo1OQ8ej9eL9PY-22" value="Отображение измененной статьи()" style="html=1;verticalAlign=bottom;endArrow=open;dashed=1;endSize=8;edgeStyle=elbowEdgeStyle;elbow=vertical;curved=0;rounded=0;" parent="1" source="hdHMv5fo1OQ8ej9eL9PY-16" edge="1">
          <mxGeometry relative="1" as="geometry">
            <mxPoint x="295" y="1000" as="targetPoint" />
            <mxPoint x="485" y="900" as="sourcePoint" />
            <Array as="points">
              <mxPoint x="340" y="1000" />
              <mxPoint x="380" y="920" />
              <mxPoint x="420" y="900" />
              <mxPoint x="430" y="860" />
              <mxPoint x="360" y="850" />
            </Array>
          </mxGeometry>
        </mxCell>
        <mxCell id="hdHMv5fo1OQ8ej9eL9PY-23" value="" style="html=1;points=[];perimeter=orthogonalPerimeter;outlineConnect=0;targetShapes=umlLifeline;portConstraint=eastwest;newEdgeStyle={&quot;edgeStyle&quot;:&quot;elbowEdgeStyle&quot;,&quot;elbow&quot;:&quot;vertical&quot;,&quot;curved&quot;:0,&quot;rounded&quot;:0};" parent="1" vertex="1">
          <mxGeometry x="615" y="790" width="10" height="130" as="geometry" />
        </mxCell>
        <mxCell id="hdHMv5fo1OQ8ej9eL9PY-24" value="Обновить данные &lt;br&gt;формы()" style="html=1;verticalAlign=bottom;endArrow=block;edgeStyle=elbowEdgeStyle;elbow=vertical;curved=0;rounded=0;" parent="1" source="hdHMv5fo1OQ8ej9eL9PY-16" target="hdHMv5fo1OQ8ej9eL9PY-23" edge="1">
          <mxGeometry x="0.0833" relative="1" as="geometry">
            <mxPoint x="535" y="790" as="sourcePoint" />
            <Array as="points">
              <mxPoint x="530" y="800" />
            </Array>
            <mxPoint as="offset" />
          </mxGeometry>
        </mxCell>
        <mxCell id="hdHMv5fo1OQ8ej9eL9PY-25" value="Заполнить форму для статьи()" style="html=1;verticalAlign=bottom;endArrow=block;edgeStyle=elbowEdgeStyle;elbow=vertical;curved=0;rounded=0;" parent="1" target="hdHMv5fo1OQ8ej9eL9PY-23" edge="1">
          <mxGeometry x="-0.3437" width="80" relative="1" as="geometry">
            <mxPoint x="295" y="840" as="sourcePoint" />
            <mxPoint x="440" y="830" as="targetPoint" />
            <Array as="points">
              <mxPoint x="510" y="840" />
            </Array>
            <mxPoint as="offset" />
          </mxGeometry>
        </mxCell>
        <mxCell id="hdHMv5fo1OQ8ej9eL9PY-26" value="Отправить&lt;br&gt;&amp;nbsp;данные о статье()" style="html=1;verticalAlign=bottom;endArrow=block;edgeStyle=elbowEdgeStyle;elbow=vertical;curved=0;rounded=0;" parent="1" source="hdHMv5fo1OQ8ej9eL9PY-23" target="hdHMv5fo1OQ8ej9eL9PY-17" edge="1">
          <mxGeometry relative="1" as="geometry">
            <mxPoint x="645" y="900" as="sourcePoint" />
            <mxPoint as="offset" />
          </mxGeometry>
        </mxCell>
        <mxCell id="hdHMv5fo1OQ8ej9eL9PY-27" value="Изменить статью в БД()" style="html=1;verticalAlign=bottom;endArrow=block;edgeStyle=elbowEdgeStyle;elbow=vertical;curved=0;rounded=0;" parent="1" source="hdHMv5fo1OQ8ej9eL9PY-17" target="hdHMv5fo1OQ8ej9eL9PY-18" edge="1">
          <mxGeometry relative="1" as="geometry">
            <mxPoint x="835" y="900" as="sourcePoint" />
            <Array as="points">
              <mxPoint x="790" y="910" />
            </Array>
          </mxGeometry>
        </mxCell>
        <mxCell id="hdHMv5fo1OQ8ej9eL9PY-28" value="Статья изменена в БД()" style="html=1;verticalAlign=bottom;endArrow=open;dashed=1;endSize=8;edgeStyle=elbowEdgeStyle;elbow=vertical;curved=0;rounded=0;" parent="1" source="hdHMv5fo1OQ8ej9eL9PY-18" target="hdHMv5fo1OQ8ej9eL9PY-17" edge="1">
          <mxGeometry relative="1" as="geometry">
            <mxPoint x="835" y="975" as="targetPoint" />
            <Array as="points">
              <mxPoint x="790" y="970" />
            </Array>
            <mxPoint as="offset" />
          </mxGeometry>
        </mxCell>
        <mxCell id="hdHMv5fo1OQ8ej9eL9PY-29" value="Статья изменена на сайт()" style="html=1;verticalAlign=bottom;endArrow=open;dashed=1;endSize=8;edgeStyle=elbowEdgeStyle;elbow=vertical;curved=0;rounded=0;" parent="1" source="hdHMv5fo1OQ8ej9eL9PY-17" target="hdHMv5fo1OQ8ej9eL9PY-16" edge="1">
          <mxGeometry relative="1" as="geometry">
            <mxPoint x="675" y="975" as="targetPoint" />
            <Array as="points">
              <mxPoint x="550" y="990" />
            </Array>
          </mxGeometry>
        </mxCell>
      </root>
    </mxGraphModel>
  </diagram>
</mxfile>
